<svg width="76" height="39" viewBox="0 0 76 39" fill="none" xmlns="http://www.w3.org/2000/svg">
<g clip-path="url(#clip0_119_6)">
<path d="M6.26812 18.5474V29.3142C6.26812 33.1567 6.56846 33.3591 10.1106 33.3591H12.3012L11.2141 38.5139H6.77414C2.02734 38.5139 0 35.1775 0 31.8965V7.17989L6.26812 6.5237V13.719H12.6831L11.6874 18.5474H6.26485H6.26812Z" fill="white"/>
<path d="M40.8897 38.5107V18.5474H36.8416L37.8601 13.719H40.893V6.72937C40.893 3.44187 42.8616 0.108673 46.9554 0.108673C50.2919 0.108673 50.9971 0.258847 52.6653 0.412285L52.1103 5.61613C50.9971 5.36475 49.8348 5.36475 49.43 5.36475C47.5594 5.36475 47.1546 6.22335 47.1546 10.2846V13.719H52.711L51.7055 18.5474H47.1513V38.5107H40.8864H40.8897Z" fill="white"/>
<path d="M26.1303 23.0591C30.4135 24.1789 34.2462 25.9418 34.2462 31.1261C34.2462 36.6237 29.7279 38.5107 23.6491 38.5074C20.995 38.5531 19.9536 38.6935 14.988 38.5074L16.0752 33.3591C16.0752 33.3591 21.0015 33.3689 23.3455 33.3591C26.7179 33.4309 28.3894 32.9445 28.3894 31.3611C28.3894 29.5133 26.2674 29.2032 23.4696 28.485C19.6402 27.4958 15.2198 26.3401 15.2198 20.9763C15.2198 15.2501 18.6999 13.719 25.6765 13.7222C28.2066 13.719 34.0764 13.7222 34.0764 13.7222L33.0578 18.5506C29.9793 18.4592 28.138 18.5311 26.0356 18.5506C22.8787 18.5506 21.0309 18.9293 21.0309 20.5976C21.0309 22.2658 23.1986 22.2952 26.1303 23.0624" fill="white"/>
<path d="M64.9794 1.09133C65.7825 1.00971 66.5856 0.928097 67.3887 0.846481C67.4769 1.10439 67.565 1.35903 67.6532 1.61694C67.8066 2.06419 67.96 2.51145 68.1167 2.95871C68.1265 2.99135 68.1624 3.03053 68.1951 3.04032C68.564 3.15458 68.9362 3.25905 69.3018 3.37658C69.4063 3.40923 69.4814 3.4027 69.5695 3.33414C70.0821 2.93912 70.6011 2.55063 71.1169 2.16213C71.2802 2.03808 71.2867 2.03155 71.4499 2.16213C71.9951 2.59633 72.5338 3.04032 73.079 3.47452C73.1443 3.52675 73.1476 3.57246 73.1116 3.64428C72.8048 4.27436 72.5044 4.9077 72.1975 5.53777C72.1682 5.59654 72.1747 5.63571 72.2041 5.69121C72.3967 6.05359 72.5828 6.42249 72.7721 6.78487C72.7852 6.81099 72.8276 6.8371 72.8603 6.84037C73.4838 6.92525 74.1106 7.0036 74.7342 7.08522C74.855 7.10154 74.9758 7.11786 75.0965 7.13419C75.1782 7.94055 75.2598 8.74039 75.3414 9.54023C75.3185 9.55002 75.2957 9.55982 75.2728 9.56635C74.5905 9.79813 73.905 10.0332 73.2226 10.2682C73.1933 10.278 73.1541 10.3107 73.1476 10.3401C73.0366 10.7057 72.9354 11.0779 72.8211 11.4435C72.7852 11.5578 72.795 11.6394 72.8668 11.7341C73.2847 12.276 73.6928 12.8212 74.1074 13.3664C74.1563 13.4284 74.1563 13.4709 74.1074 13.5329C73.6438 14.0977 73.1802 14.6657 72.7199 15.2338C72.6677 15.2991 72.6187 15.3121 72.5501 15.2664C72.5338 15.2566 72.5142 15.2501 72.4979 15.2403C71.8907 14.9497 71.2834 14.6625 70.6795 14.3719C70.5946 14.3327 70.5293 14.3327 70.4477 14.3784C70.0984 14.5678 69.7458 14.7506 69.3965 14.94C69.3704 14.953 69.3508 14.9922 69.3442 15.0248C69.2822 15.4982 69.2235 15.9748 69.1647 16.4482C69.132 16.7159 69.0961 16.9804 69.0635 17.2481C68.2604 17.3297 67.4605 17.4113 66.6542 17.4929C66.6444 17.4701 66.6346 17.4439 66.6281 17.4211C66.3963 16.742 66.1612 16.0597 65.9262 15.3807C65.9164 15.348 65.8837 15.3121 65.8543 15.3023C65.505 15.1946 65.1492 15.0999 64.8031 14.9857C64.653 14.9367 64.5387 14.9465 64.4114 15.0477C63.889 15.4558 63.3569 15.8541 62.8313 16.2589C62.7725 16.3046 62.7301 16.3078 62.6713 16.2589C62.3873 16.0303 62.1 15.8083 61.8192 15.5733C61.532 15.335 61.2545 15.0869 60.9704 14.8453C60.9149 14.7996 60.9084 14.7539 60.9411 14.6853C61.2349 14.0781 61.5222 13.4676 61.816 12.8604C61.8682 12.7526 61.8649 12.671 61.8062 12.5666C61.6234 12.2434 61.4471 11.9136 61.274 11.5839C61.2447 11.5251 61.2088 11.499 61.1435 11.4892C60.4089 11.3978 59.6776 11.3031 58.9431 11.2085C58.8615 10.4054 58.7799 9.60226 58.6982 8.79915C58.7211 8.79263 58.7472 8.78283 58.7701 8.7763C59.4524 8.54125 60.138 8.30946 60.8203 8.0744C60.8496 8.06461 60.8823 8.0287 60.8921 7.99932C61.0031 7.63368 61.1043 7.26477 61.2218 6.89913C61.2577 6.78487 61.2512 6.70325 61.1761 6.60858C60.7778 6.09276 60.3861 5.57042 59.9943 5.04808C59.8833 4.8979 59.8605 4.93708 59.9845 4.78038C60.4122 4.23845 60.8464 3.70304 61.2838 3.17091C61.3916 3.04032 61.4079 3.04359 61.5613 3.11867C62.1131 3.38637 62.6681 3.64755 63.2132 3.92831C63.383 4.01645 63.5169 4.00666 63.6638 3.90872C63.6768 3.89892 63.6931 3.89239 63.7095 3.8826C64.0098 3.72916 64.3102 3.57246 64.6138 3.41902C64.6693 3.3929 64.6921 3.36352 64.6987 3.30149C64.7901 2.56368 64.8847 1.82914 64.9794 1.09459M70.34 8.85139C70.1571 7.01666 68.5248 5.67489 66.6934 5.85445C64.8684 6.034 63.5266 7.67285 63.7095 9.50105C63.889 11.3162 65.5311 12.6678 67.3332 12.4849C69.1843 12.2989 70.526 10.6763 70.3432 8.85139" fill="white"/>
</g>
<defs>
<clipPath id="clip0_119_6">
<rect width="75.3415" height="38.4934" fill="white" transform="translate(0 0.108673)"/>
</clipPath>
</defs>
</svg>
